# xmcd
#
# Track frame offsets: 
#        150
#        16117
#        30673
#        44588
#        62303
#        81098
#        93592
#        107319
#        119238
#        133777
#        159179
#        194884
#        211286
#        229099
#
# Disc length: 3287 seconds
#
# Revision: 0
# Processed by: cddbd v1.5.2PL0 Copyright (c) Steve Scherf et al.
# Submitted via: ExactAudioCopyFreeDBPlugin 1.0
#
DISCID=b90cd50e
DTITLE=TIMPAUL - TIMPAUL
DYEAR=1998
DGENRE=Country
TTITLE0=For a Long, Long While
TTITLE1=It's Not My Lucky Day
TTITLE2=I'm Drinkin' Again
TTITLE3=I'm gonna Love You From Now On
TTITLE4=A Sure Way To Make Love Strong
TTITLE5=Houston Lady
TTITLE6=Who You Cryin' Over Now
TTITLE7=I'd Do It All Over Again
TTITLE8=Picture This
TTITLE9=Short Stroke
TTITLE10=an Angel Sent Down From Heaven
TTITLE11=I Still think Of You
TTITLE12=That Bright Texas Moon
TTITLE13=the Way You Wanna Live
EXTD=
EXTT0=
EXTT1=
EXTT2=
EXTT3=
EXTT4=
EXTT5=
EXTT6=
EXTT7=
EXTT8=
EXTT9=
EXTT10=
EXTT11=
EXTT12=
EXTT13=
PLAYORDER=
